<?xml version="1.0" standalone="no"?>
<!DOCTYPE svg PUBLIC "-//W3C//DTD SVG 20010904//EN"
 "http://www.w3.org/TR/2001/REC-SVG-20010904/DTD/svg10.dtd">
<svg version="1.0" xmlns="http://www.w3.org/2000/svg"
 width="180.000000pt" height="180.000000pt" viewBox="0 0 180.000000 180.000000"
 preserveAspectRatio="xMidYMid meet">

<g transform="translate(0.000000,180.000000) scale(0.100000,-0.100000)"
fill="#000000" stroke="none">
<path d="M632 1733 c-5 -10 -67 -213 -137 -452 -121 -412 -127 -435 -110 -448
15 -10 73 -13 257 -13 131 0 238 -4 238 -8 0 -5 -34 -172 -75 -372 -77 -378
-79 -395 -32 -388 26 4 660 1093 652 1119 -6 17 -24 19 -243 21 -151 2 -236 7
-235 13 1 6 10 32 20 58 17 47 17 49 -1 63 -28 20 -45 5 -76 -67 -38 -89 -41
-102 -30 -119 8 -12 49 -16 238 -20 l229 -5 -235 -403 c-129 -222 -236 -402
-237 -400 -2 2 21 125 52 275 31 149 53 278 50 287 -6 14 -37 16 -252 16 -227
0 -245 1 -244 18 0 9 51 186 112 392 l112 375 189 3 c177 2 188 1 181 -15 -27
-66 -28 -75 -11 -91 25 -26 47 -5 80 76 44 106 53 102 -240 102 -222 0 -244
-2 -252 -17z"/>
<path d="M975 1459 c-10 -30 18 -58 43 -43 9 6 17 22 17 35 0 34 -50 41 -60 8z"/>
<path d="M132 1361 c-32 -20 -8 -53 69 -97 84 -48 112 -50 107 -5 -2 20 -18
34 -78 68 -83 47 -80 46 -98 34z"/>
<path d="M1570 1327 c-60 -34 -76 -48 -78 -68 -5 -45 23 -43 107 5 77 44 101
77 69 97 -18 12 -15 13 -98 -34z"/>
<path d="M16 927 c-10 -7 -16 -22 -14 -33 3 -17 12 -19 108 -19 96 0 105 2
108 19 7 33 -25 46 -108 46 -47 0 -83 -5 -94 -13z"/>
<path d="M1596 927 c-10 -7 -16 -22 -14 -33 3 -17 12 -19 108 -19 96 0 105 2
108 19 7 33 -25 46 -108 46 -47 0 -83 -5 -94 -13z"/>
<path d="M200 537 c-78 -44 -96 -71 -66 -96 23 -19 170 64 174 98 3 20 -11 41
-28 41 -3 0 -39 -19 -80 -43z"/>
<path d="M1502 571 c-8 -4 -12 -19 -10 -32 4 -34 151 -117 174 -98 30 25 12
52 -66 96 -83 47 -80 46 -98 34z"/>
</g>
</svg>
